<svg width="1259" height="517" viewBox="0 0 1259 517" fill="none" xmlns="http://www.w3.org/2000/svg">
<rect x="11" y="8" width="1244" height="500" rx="65" fill="white"/>
<path d="M4.86108 363.803C4.86108 395.175 5.36308 438.543 14.3089 460.766C22.369 472.216 17.8356 490.465 29.9998 490.465C34.3983 490.465 39.807 494.437 43.9503 497.889C50.2489 503.137 57.7076 503.048 63.9998 508.407C75.9998 512.12 98.8305 503.87 110.823 503.87C120.804 503.87 132.859 515.207 142.592 510.47C182 503.87 201.625 514.595 230.151 506.757C270.5 506.757 298.302 500.887 331.657 508.407C361.837 515.211 392.175 506.757 422 506.757C440.189 506.757 455.27 511.06 473.456 506.757C488.947 503.092 503.053 511.186 518.398 512.12C531.056 512.89 543.949 500.684 555.784 511.295C575 507.582 583.924 504.88 592 512.12C634 512.12 625.673 509.065 640.5 508.407C657.601 507.649 665.593 503.87 682.667 503.87C707.5 508.407 742.128 504.772 771.5 506.757C795.386 503.045 830.393 507.582 860.497 507.582C875.368 507.582 889.957 503.87 904.857 503.87C920.47 503.87 933.889 507.582 949.412 507.582C962.443 507.582 974.969 511.295 988.154 511.295H998C1004.19 511.295 1015 506.757 1021 506.757C1029.87 506.757 1043.24 509.655 1052 507.582C1057.32 506.323 1068.52 511.295 1074 511.295C1091.25 511.295 1096.5 509.645 1122 506.757C1147.5 503.87 1151.41 504.588 1169.28 503.87C1180.87 503.404 1206 506.757 1218 502.22C1234.95 486.182 1252.77 476.385 1252.77 426.5V364.5C1252.77 342.279 1254.65 320.443 1254.9 296.807C1255.13 275.524 1254.9 254.163 1254.9 232.874C1254.9 216.948 1254.86 189.334 1252.77 174.302C1251.6 165.929 1255.75 150.562 1254.03 142.51C1251.51 130.715 1253.86 115.024 1252.77 102.5C1251.34 86.1897 1258.34 70.8562 1252.77 59C1247.15 47.0263 1238.98 35.8194 1232 28C1225.66 20.8965 1205.66 16.4243 1198.43 14.0553C1169.28 -1.00003 1130.68 5.54325 1122.4 6.42455C1107.8 7.9787 1101 10.9618 1071.5 10.9618C1045.15 8.28065 1049.2 13.8491 1036.2 13.8491C1017.77 13.8491 999.301 9.31186 981.181 9.31186C958.247 9.31186 947 10.9618 913.5 10.9618C901.662 5.51162 894.145 10.9618 882 10.9618C872.245 10.9618 873.863 6.42455 839.963 9.31186C830.911 17.0212 818.203 8.4869 808.581 8.4869C797.907 8.4869 787.683 15.0892 777.2 13.8491C750.736 10.7186 724.213 13.8491 697.583 13.8491C676.44 13.8491 653.035 2.47392 632.108 10.9618C615.588 17.662 598.192 12.2049 581.548 9.31186C560.311 5.62043 539.8 8.48693 518.5 8.48693C499.863 8.48693 482.272 6.42453 463.77 6.42453C441.513 6.42453 419.381 10.1368 397.132 10.1368C380.222 10.1368 364.735 18.0491 348.51 13.0241C328.893 6.94829 308.524 10.1368 288.749 10.1368H258C240.591 10.1368 235.5 6.42455 205.5 10.1368C202.351 12.2921 196.308 12.6856 193.054 11.993C175.993 8.36009 159.896 4.35112 142.592 4.77463C131.302 5.05096 103.72 9.31186 92 9.31186C52.7466 9.31186 10.0005 -1.50003 10.0005 132C10.0005 155.303 11.0516 198.605 9.99991 221C8.84133 245.67 10.4376 260.375 10.0005 285.5C9.58492 309.394 4.86108 339.84 4.86108 363.803Z" stroke="#0150DB" stroke-width="8" stroke-linecap="round"/>
</svg>
