<svg width="1726" height="192" viewBox="0 0 1726 192" fill="none" xmlns="http://www.w3.org/2000/svg">
<path d="M22.0724 7.22661C36.2034 2.78377 38.2768 13.3218 41.1183 22.7478C43.1114 16.2015 49.7202 5.89911 51.0416 3.74851C53.0814 0.428718 59.929 -1.12323 63.864 0.914503C68.1445 3.13114 84.6697 7.18634 85.7888 11.2844C88.5188 21.2815 63.9978 30.7165 57.6903 37.3702C52.8684 42.4565 53.0995 48.0485 53.0995 54.1166C53.0995 58.235 53.1272 71.3743 53.0995 70.9918C52.8693 67.8064 50.2501 65.5564 50.2501 62.2966V62.2582C50.2502 59.4957 50.2503 53.5194 46.6092 52.4419C39.9266 50.4645 32.7444 50.0426 25.9508 48.3842C22.0956 47.443 11.5128 45.6392 9.01257 42.5873C2.66054 34.8338 -7.41649 16.7031 8.61682 10.9624C12.8781 9.43657 17.4068 8.69351 22.0724 7.22661Z" fill="#0150DB"/>
<path d="M1551.6 130.35C1542.9 130.35 1534.64 134.763 1526.21 136.631C1524.63 133.525 1522.46 130.746 1519.28 129.393C1506.21 123.82 1491.41 120.206 1480.07 130.76C1475.98 134.565 1476.12 138.225 1479.66 142.169C1482.92 145.807 1488.53 147.048 1492.64 149.48C1497.33 152.256 1502.19 155.886 1505.35 160.411C1510.04 167.147 1512.98 176.976 1514.43 184.938C1514.78 186.825 1514.84 192.595 1514.84 190.677C1514.84 189.771 1514.97 188.887 1515.22 188.013C1517.23 180.864 1521.4 175.546 1527.82 172.333C1532.8 169.843 1537.44 166.636 1542.44 164.135C1547.32 161.698 1552.2 160.284 1555.66 155.799C1559.72 150.546 1561.67 130.35 1551.6 130.35Z" fill="#0150DB"/>
<path d="M1719.87 100.381C1711.9 113.561 1701.16 118.2 1690.72 124.116C1690.71 123.503 1690.66 122.854 1690.59 122.181C1690.3 119.251 1689.69 115.738 1688.47 113.413C1686.04 108.81 1681.97 106.476 1678.68 103.975C1672.7 99.4214 1666.51 95.563 1660.77 90.2067C1656.64 86.3521 1652.38 80.6535 1650.68 73.2996C1649.89 69.8422 1649.96 66.3751 1650.06 62.757C1650.15 59.3968 1650.12 55.8775 1651.45 53.0587C1654.9 45.7163 1662.34 44.5796 1667.59 45.1139C1675.3 45.8979 1680.63 53.4089 1686.95 59.4665C1690.56 62.9282 1693.06 65.78 1692.87 72.9749C1692.79 76.1243 1691.39 85.1672 1692.33 82.3918C1694.13 77.0693 1697.63 73.225 1700.55 69.5761C1705.43 63.4899 1712.27 54.4295 1718.92 58.4274C1723.42 61.1348 1724.68 68.8322 1725.66 75.616C1727.05 85.3034 1724.01 93.5284 1719.87 100.381Z" fill="#0150DB"/>
</svg>
