<svg width="311.000000" height="235.164062" viewBox="0 0 311 235.164" fill="none" xmlns="http://www.w3.org/2000/svg" xmlns:xlink="http://www.w3.org/1999/xlink">
	<desc>
			Created with Pixso.
	</desc>
	<defs/>
	<path id="Vector 142" d="M127.06 17.06C143.42 7.81 158.78 42.37 157.01 54.62C155.5 65.08 148.85 71.86 143.16 80.29C137.33 88.94 132.73 98.41 126.92 107.02C119.42 118.14 117.53 130.6 120.81 144.04C121.22 145.69 121.81 147.24 122.65 148.71C124.4 151.83 119.01 142.52 116.72 139.78C107.05 128.19 93.26 114.94 79.46 108.32C70.18 103.87 58.95 102.45 48.78 102.25C39.87 102.08 29.62 105.22 20.98 102.31C11.61 99.16 8.02 93.36 11.18 83.42C19.94 55.88 47.3 48.15 73.66 45.19C80.06 44.47 86.14 46.98 91.55 50.57C103.55 39.79 112.92 25.05 127.06 17.06Z" fill="#0150DB" fill-opacity="1.000000" fill-rule="evenodd"/>
	<path id="Vector 143" d="M304.86 105.38C309 98.52 312.05 90.3 310.65 80.61C309.67 73.83 308.41 66.13 303.91 63.42C297.26 59.42 290.42 68.48 285.55 74.57C282.62 78.22 279.12 82.06 277.32 87.39C276.39 90.16 277.79 81.12 277.87 77.97C278.06 70.78 275.55 67.92 271.94 64.46C265.62 58.4 260.3 50.89 252.59 50.11C247.33 49.57 239.9 50.71 236.44 58.05C235.11 60.87 235.14 64.39 235.05 67.75C234.96 71.37 234.88 74.84 235.68 78.29C237.38 85.65 241.64 91.35 245.76 95.2C251.5 100.56 257.69 104.42 263.68 108.97C266.97 111.47 271.04 113.81 273.46 118.41C274.69 120.73 275.3 124.25 275.59 127.18C275.65 127.85 275.7 128.5 275.72 129.11C286.16 123.2 296.9 118.56 304.86 105.38Z" fill="#0150DB" fill-opacity="1.000000" fill-rule="evenodd"/>
	<path id="Vector 170" d="M228.32 195.58C235.61 187.66 241.88 177.62 242.84 164.42C243.51 155.17 244.07 144.63 239.03 139.8C231.59 132.66 220.19 142.75 212.16 149.46C207.35 153.47 201.74 157.59 197.9 164.13C195.9 167.55 200.28 155.97 201.29 151.82C203.58 142.35 201.16 137.88 197.48 132.3C191.05 122.53 186.32 111.11 176.59 107.94C169.96 105.77 160.05 105.21 153.49 113.97C150.98 117.33 150.02 122 148.94 126.42C147.79 131.18 146.71 135.75 146.75 140.54C146.85 150.75 150.72 159.47 154.95 165.72C160.83 174.4 167.72 181.22 174.15 188.91C177.68 193.13 182.27 197.35 184.09 204.12C185.01 207.53 184.8 212.35 184.33 216.31C184.23 217.22 184.11 218.09 183.95 218.91C199.11 213.97 214.29 210.82 228.32 195.58Z" fill="#0150DB" fill-opacity="1.000000" fill-rule="evenodd"/>
</svg>
