<svg width="2025.520508" height="137.655457" viewBox="0 0 2025.52 137.655" fill="none" xmlns="http://www.w3.org/2000/svg" xmlns:xlink="http://www.w3.org/1999/xlink">
	<path id="Vector 188" d="M3.51 26.07C42.51 82.57 186.01 117.01 272.01 117.01C284.28 116.65 297.72 110.63 310.25 102.03C344.26 78.68 338.17 28.8 300.96 11C280.94 1.42 261.42 -0.43 247.61 14.95C219.12 46.64 255.96 89.67 298.01 96.56C368.11 108.05 466.51 120.8 487.26 122.75C521.88 125.99 551.89 121.81 586.11 117.01C630.18 110.83 672.41 99.24 716.69 93.73C757.88 88.6 798.98 91.67 839.99 95.97C948 107.28 1050.43 144.46 1161.38 131.49C1182.99 128.96 1204.84 126.07 1226.01 121.98C1247.76 117.77 1267.55 109.63 1288.32 103.52C1339.61 88.44 1398.7 87.58 1453.24 89.95C1489 91.51 1524.49 97.19 1559.95 100.72C1597.21 104.43 1633.91 109.9 1670.69 115.54C1805.01 155.58 1952.26 106.42 2022.01 131.49" stroke="#144185" stroke-opacity="1.000000" stroke-width="7.000000" stroke-linecap="round"/>
</svg>
