<svg width="314" height="60" viewBox="0 0 314 60" fill="none" xmlns="http://www.w3.org/2000/svg">
<path d="M159.5 4.02745C148.822 5.64538 128.342 2.89559 117.5 2.99984M117.5 2.99984C112.003 3.05269 106.694 1.43865 101.2 1.64994C89.8975 2.08467 78.8301 5.65571 67.4794 6.43852C61.697 6.8373 56.0828 8.19344 50.2673 8.24679C44.3827 8.30078 38.6185 8.66832 32.8208 9.78718C26.4926 11.0084 18.9822 11.1195 13.5325 14.9106C6.288 19.9503 3.1424 29.7641 2.08013 38.0498C0.880763 47.4049 13.4322 51.2126 20.5312 52.8509C31.0881 55.2871 41.2428 57.5836 52.1425 57.6729C59.0955 57.7299 66.0513 57.6729 73.0046 57.6729C91.8312 57.6729 110.553 55.8647 129.363 55.8647C146.89 55.8647 164.254 55.5432 181.668 57.405C188.779 58.1652 196.062 57.5442 203.2 57.7064C214.027 57.9525 224.812 58.2757 235.649 58.2757C247.575 58.2757 259.232 57.0283 271.111 56.166C280.609 55.4766 289.727 54.7926 298.938 52.3821C302.891 51.3477 307.252 50.429 309.185 46.4549C311.267 42.1768 312.037 37.5701 311.462 32.8259C309.682 18.1384 288.742 12.1832 277.105 8.84955C257.12 3.124 236.804 4.02749 216.227 4.02749C193.469 4.02749 170.787 5.23301 148.048 5.23301C142.644 5.23301 122.188 5.34372 117.5 2.99984Z" stroke="black" stroke-width="3" stroke-linecap="round"/>
</svg>
