<svg width="509.920654" height="155.966187" viewBox="0 0 509.921 155.966" fill="none" xmlns="http://www.w3.org/2000/svg" xmlns:xlink="http://www.w3.org/1999/xlink">
	<path id="Vector 189" d="M481.71 119.35C468.62 124.28 456.3 128.92 442.2 131.72C431.73 133.79 421.07 135.82 410.49 137.57C391.44 140.74 372.76 144.84 353.56 147.7C320.06 152.67 285.97 154.24 251.77 154.24C220.67 154.24 188.93 156.19 158.91 149.25C150.7 147.35 142.11 146.89 133.75 145.54C120.58 143.42 107.51 140.78 94.35 138.56C78.87 135.96 65.93 131.62 55.64 122.45C30.27 99.84 21.98 67.61 42.32 41.47C47.51 34.81 53.83 28.05 62.07 23.34C74.07 16.48 91.65 13.07 105.97 10.54C138.98 4.71 172.94 6.15 206.56 6.15C246.32 6.15 286.08 6.15 325.83 6.15C358.99 6.15 393.18 6.66 425.52 12.78C445.56 16.57 470.32 19.17 487.63 28.46C501.95 36.15 504.56 47.14 504.25 59.65C504.01 69.68 498.96 78.75 494.46 87.99C490.52 96.1 489.7 105.74 483.53 113.15C473.15 125.61 452.39 131.1 434.57 134.52C415.04 138.26 393.62 137.74 373.65 139.08C356.59 140.23 339.4 139.64 322.36 140.76C303.37 142.02 284.59 144.76 265.6 146.1C227.73 148.79 190.81 153.15 152.65 151.92C131 151.22 109.87 146.96 89.23 142.18C70.73 137.9 50.82 132.25 34.12 124.78C18.44 117.77 8.09 103.58 3.15 90.84C-4 72.38 13.17 59.89 31.39 49.74C54.63 36.79 81.53 27.8 108.47 20.28C139.63 11.58 173.5 9.02 206.45 7.35C220.22 6.66 234.78 6.22 248.58 7.01C263.03 7.83 278.4 11.68 292.59 13.94C317.35 17.89 342.26 19.77 366.88 23.98C376.34 25.6 384.94 28.82 394.21 30.53C403.45 32.24 413.27 33.33 422.73 34.06C430.25 34.65 437.88 36.16 445.27 37.34C454.58 38.81 468.06 38.95 476.36 42.59C481.61 44.9 485.89 51.24 488.88 55C492.12 59.06 494.89 64.04 495.83 68.78C497.68 78.11 495.03 88.19 492.98 97.3C490.67 107.61 485.11 116.61 476.36 124.78C468.71 131.91 461.84 139.56 452.05 145.24C447.18 148.07 441.07 150.13 434.91 150.32C420.51 150.79 405.89 151.52 391.47 151.1C378.32 150.72 365.15 147.21 351.96 146.1C336.73 144.82 321.4 144.22 306.14 143.04C281.67 141.17 256.37 137.89 232.7 132.96C224.61 131.28 215.74 131.28 207.42 130.81C192.5 129.96 177.65 128.91 162.67 128.66C150.97 128.46 139.74 125.71 127.94 125.56C118.33 125.43 108.96 124.27 100.05 121.51C81.34 115.71 63.02 111.15 45.62 103.07C26.5 94.19 26.66 77.04 38.22 63.87C55.47 44.22 88.88 30.31 118.09 23.64C136.66 19.39 155.58 17.83 174.8 16.57C191.63 15.47 208.16 13.12 224.84 11.19C256.79 7.48 289.27 7.7 321.51 7.7C342.93 7.7 364.36 7.7 385.78 7.7C400.21 7.7 414.27 7.92 428.48 10.07C448.87 13.15 468.73 20.76 482.73 32.68C493.68 42 504.54 55.69 506.53 68.18C507.63 75.05 509.22 81.9 508.12 88.85C506.79 97.36 500.31 104.2 495.26 111.6C485.27 126.21 472.93 134.39 452.67 140.72C436.89 145.65 419.5 144.21 402.86 146.1C387.15 147.89 371.13 148.04 355.27 148.04C315.58 148.04 275.24 148.97 235.71 146.1C216.81 144.73 197.67 145.01 179.07 141.75C165.65 139.4 151.73 136.3 138.87 132.49C115.3 125.5 82.91 119.24 68.18 103.07C48.7 81.67 39.92 40.73 73.29 21.66C108.09 1.76 157.87 1.66 199.68 1.5C214.25 1.44 227.78 3.16 242.15 4.6C263.58 6.74 285.15 7.4 306.7 8.47C323.53 9.31 340.25 9.62 357.09 10.07C371.24 10.44 385.24 13.71 399.16 15.41C411.36 16.9 424.4 17.97 436.05 21.31C444.14 23.63 452.77 24.13 461.16 25.92C475.49 28.99 484.51 31.57 492.58 41.13C502.06 52.35 508.35 64.38 508.35 77.91C508.35 92.14 499.03 100.91 486.38 110.39C472.26 120.97 457.29 131.22 436.96 133.48C419.23 135.46 400.98 139.35 382.99 139.51C369.1 139.64 355.21 139.51 341.32 139.51" stroke="#378EFF" stroke-opacity="1.000000" stroke-width="3.000000" stroke-linecap="round"/>
</svg>