<svg width="1127" height="129" viewBox="0 0 1127 129" fill="none" xmlns="http://www.w3.org/2000/svg">
<g opacity="0.19" filter="url(#filter0_i_1_60)">
<path d="M0.720001 129V0.199991H122.16V129H81.68V39.208H41.2V129H0.720001ZM190.297 129L235.929 0.199991H288.186L333.817 129H291.129L279.353 94.224H244.209L232.249 129H190.297ZM245.497 90.544H278.065L261.873 43.072L245.497 90.544ZM401.955 129V0.199991H442.067V62.76H446.667L484.755 0.199991H528.547L491.379 61.288L532.595 129H484.571L446.483 66.44H442.067V129H401.955ZM598.619 129V0.199991H696.323V35.16H638.179V62.76H675.899V66.44H638.179V94.04H700.003V129H598.619ZM803.808 129V39.208H760.568V0.199991H887.528V39.208H844.288V129H803.808ZM957.448 129V0.199991H997.192V55.4H1020.38C1035.71 55.4 1047.73 58.712 1056.44 65.336C1065.27 71.8373 1069.69 80.792 1069.69 92.2C1069.69 99.8053 1067.48 106.368 1063.06 111.888C1058.65 117.408 1052.33 121.64 1044.11 124.584C1035.89 127.528 1026.14 129 1014.86 129H957.448ZM1010.26 94.04C1015.78 94.04 1020.31 92.4453 1023.87 89.256C1027.43 85.944 1029.21 81.6507 1029.21 76.376C1029.21 71.3467 1027.43 67.2373 1023.87 64.048C1020.31 60.736 1015.78 59.08 1010.26 59.08H997.192V94.04H1010.26ZM1086.25 129V0.199991H1126.73V129H1086.25Z" fill="#0150DB" fill-opacity="0.38"/>
</g>
<defs>
<filter id="filter0_i_1_60" x="0.719971" y="0.200195" width="1131.51" height="134.3" filterUnits="userSpaceOnUse" color-interpolation-filters="sRGB">
<feFlood flood-opacity="0" result="BackgroundImageFix"/>
<feBlend mode="normal" in="SourceGraphic" in2="BackgroundImageFix" result="shape"/>
<feColorMatrix in="SourceAlpha" type="matrix" values="0 0 0 0 0 0 0 0 0 0 0 0 0 0 0 0 0 0 127 0" result="hardAlpha"/>
<feOffset dx="11" dy="17"/>
<feGaussianBlur stdDeviation="2.75"/>
<feComposite in2="hardAlpha" operator="arithmetic" k2="-1" k3="1"/>
<feColorMatrix type="matrix" values="0 0 0 0 0 0 0 0 0 0 0 0 0 0 0 0 0 0 0.25 0"/>
<feBlend mode="normal" in2="shape" result="effect1_innerShadow_1_60"/>
</filter>
</defs>
</svg>
