<svg width="988" height="1024" viewBox="0 0 988 1024" fill="none" xmlns="http://www.w3.org/2000/svg">
<path d="M126 4C193.296 74.2468 157.697 140.142 114 186C78.2916 223.474 140.948 245.601 258.5 160C336.883 102.922 90.7308 397.758 138.701 338C196.497 266 4.49994 222.795 4.49994 286C4.5 378.033 190.521 368 242.5 368C356.405 368 379.758 401.491 385.68 437.445C394.805 492.843 326.048 512.329 138.701 503.962C79.6094 501.323 -40.3303 498.611 136.883 687.67C354.869 920.228 7.79746 788.381 48.0484 716.729C73.6936 671.077 364.858 763.611 844.782 959.374C879.826 973.669 940.792 1000.21 983.5 1019.5" stroke="url(#paint0_linear_141_102)" stroke-width="8" stroke-linecap="round"/>
<defs>
<linearGradient id="paint0_linear_141_102" x1="290.586" y1="71.2065" x2="385.22" y2="676.292" gradientUnits="userSpaceOnUse">
<stop stop-color="#004FDA"/>
<stop offset="0.596154" stop-color="#E7ECF5"/>
<stop offset="1" stop-color="#004FDA"/>
</linearGradient>
</defs>
</svg>
