<svg width="987" height="1090" viewBox="0 0 987 1090" fill="none" xmlns="http://www.w3.org/2000/svg">
<path d="M113.5 4.5C180.796 74.7468 157.197 206.142 113.5 252C77.7916 289.474 140.448 311.601 258 226C336.383 168.922 90.2308 463.758 138.201 404C195.997 332 4 288.795 4 352C4.00006 444.033 190.022 434 242 434C355.905 434 379.258 467.491 385.18 503.445C394.305 558.843 325.548 578.329 138.201 569.962C79.1095 567.323 -40.8302 564.611 136.383 753.67C354.369 986.228 7.29752 854.381 47.5484 782.729C73.1936 737.077 364.358 829.611 844.282 1025.37C879.326 1039.67 940.292 1066.21 983 1085.5" stroke="url(#paint0_linear_198_6)" stroke-width="8" stroke-linecap="round"/>
<defs>
<linearGradient id="paint0_linear_198_6" x1="290.086" y1="137.207" x2="384.72" y2="742.293" gradientUnits="userSpaceOnUse">
<stop stop-color="#004FDA"/>
<stop offset="0.596154" stop-color="#E7ECF5"/>
<stop offset="1" stop-color="#004FDA"/>
</linearGradient>
</defs>
</svg>
