<svg width="2513" height="1852" viewBox="0 0 2513 1852" fill="none" xmlns="http://www.w3.org/2000/svg">
<path d="M509.429 169.704C563.742 104.414 656.332 30.5585 742.172 15.4787C800.59 5.21638 862.205 4.71274 921.213 9.09243C945.12 10.8669 986.718 10.9973 1001.54 34.8577C1024.59 71.9699 1046.84 96 1025 169.704C1013.59 208.204 1013.5 275 920.089 387.159C908.42 404.153 885.433 418.643 872.374 434.5C845.678 466.918 829.856 498.714 809.12 535.805C794.001 562.847 782.454 597.175 773.662 626.974C756.736 684.337 761.576 765.868 820.939 797.421C859.753 818.053 910.755 827.607 948.762 796.32C973.631 775.849 974.59 730.895 974.59 701.407C974.59 667.851 927.246 679.452 911.116 695.681C881.633 725.345 869.254 753.938 872.374 796.32C876.828 856.817 897.824 914.72 888 976C826.5 1106 888 1094.38 986 1100.5C1074 1106 1172 1012.5 1297 1022.5C1349 1022.5 1420.5 1060.5 1592 1076C1676.79 1083.66 1811.5 1122.85 1888.5 1111C1965.5 1099.15 2172.37 1149.99 2176.3 1188.24C2178.92 1234.21 2231.84 1317.08 2422.57 1280.72C2613.3 1244.36 2432.39 1200.49 2352.65 1224.2C2272.92 1247.92 2194.6 1289.97 2341.66 1409.16C2525.47 1558.15 1978 1793.5 2118.17 1510.33C2134.54 1472.26 2159.5 1432 2112 1432C2029.5 1432 2034 1519.5 1830 1519.5C1626 1519.5 1576.5 1537.5 1407.5 1519.5C1243.5 1507.5 1121 1497.5 969 1519.5C817 1541.5 -32.6012 1344.64 7.71217 1425.76C98.6849 1547.09 480.39 1930.13 21.9465 1829.27" stroke="#144185" stroke-width="12" stroke-linecap="round"/>
</svg>
