<svg width="1181" height="1511" viewBox="0 0 1181 1511" fill="none" xmlns="http://www.w3.org/2000/svg">
<path opacity="0.08" d="M227.728 430.642C218.943 416.988 208.784 399.026 197.25 376.756C185.717 354.485 181.614 332.692 184.943 311.378C211.586 315.538 235.711 322.717 257.318 332.914C280.048 344.652 302.009 356.951 323.2 369.813C345.722 382.882 368.453 394.62 391.392 405.025C414.123 416.763 438.81 424.712 465.453 428.872L520.06 79.1794C521.724 68.5221 527.635 61.2572 537.792 57.3847C549.074 55.0525 558.045 54.4064 564.705 55.4465L570.7 56.3826C572.032 56.5907 573.927 57.5688 576.383 59.317C574.595 79.5075 572.536 105.797 570.208 138.185C567.672 171.905 566.364 206.499 566.283 241.967C566.203 277.436 568.33 311.884 572.662 345.312C578.119 380.28 586.406 410.232 597.523 435.167L601.52 435.791C602.852 435.999 603.518 436.103 603.518 436.103C604.642 437.643 605.87 438.517 607.202 438.725C625.853 441.638 643.025 440.908 658.719 436.535C675.537 433.703 691.231 429.33 705.8 423.418C721.702 417.713 736.834 412.57 751.196 407.99C765.35 404.741 779.753 404.261 794.407 406.55C791.911 422.536 784.96 436.461 773.555 448.327C763.481 460.4 752.18 471.6 739.651 481.925C727.121 492.25 715.258 502.679 704.06 513.213C693.987 525.286 687.702 539.316 685.206 555.302C683.334 567.291 691.661 579.509 710.187 591.954C730.045 604.608 754.67 617.323 784.062 630.101C814.578 644.419 847.092 659.049 881.604 673.99C917.24 690.472 949.338 707.767 977.897 725.873C1007.58 745.519 1031.06 765.562 1048.34 786C1066.95 806.647 1074.28 829.626 1070.33 854.937L882.492 825.605C911.967 846.584 932.514 872.309 944.131 902.78C955.749 933.252 958.957 965.14 953.756 998.444C925.781 994.076 896.951 982.068 867.268 962.422C838.708 944.315 810.669 922.879 783.15 898.112C756.962 873.553 732.211 848.536 708.897 823.06C686.914 797.793 668.304 777.147 653.066 761.121C652.234 766.45 649.903 777.003 646.075 792.781C643.37 810.099 641.602 821.422 640.77 826.751C632.865 877.373 627.624 928.411 625.048 979.866C623.596 1032.86 622.248 1085.19 621.004 1136.85C619.551 1189.85 617.433 1242.74 614.649 1295.52C613.196 1348.52 608.414 1400.99 600.301 1452.95C586.979 1450.87 575.842 1434.8 566.889 1404.74C557.728 1376.02 549.919 1338.64 543.462 1292.59C538.129 1248.09 533.629 1198.26 529.96 1143.1C527.416 1089.48 524.768 1036.53 522.016 984.246C519.263 931.96 515.887 883.67 511.886 839.376C507.886 795.083 502.991 760.885 497.203 736.782C463.026 754.644 430.933 781.019 400.921 815.907C372.241 851.004 343 885.33 313.196 918.886C283.392 952.442 251.756 980.253 218.288 1002.32C184.612 1025.72 145.793 1033.99 101.832 1027.12C108.489 984.492 124.055 945.983 148.53 911.595C173.005 877.207 200.706 844.005 231.634 811.989C263.686 781.513 295.842 750.371 328.102 718.563C360.154 688.088 387.293 654.116 409.52 616.647C392.118 605.742 367.639 596.461 336.083 588.804C304.319 582.479 272.763 574.822 241.416 565.833C211.192 558.384 185.485 548.228 164.294 535.367C142.896 523.837 134.068 506.083 137.813 482.104C139.061 474.111 142.974 466.534 149.55 459.374C157.251 453.753 165.514 448.902 174.339 444.822C184.497 440.949 193.884 437.639 202.501 434.891C212.45 432.35 220.859 430.934 227.728 430.642Z" fill="#005CFF"/>
</svg>
