<svg width="1017" height="956" viewBox="0 0 1017 956" fill="none" xmlns="http://www.w3.org/2000/svg">
<path d="M158.5 4.5C225.797 74.7468 178.351 91.8476 158.5 152C142 202 189.641 271.907 282.5 160C302 136.5 110.531 347.258 158.5 287.5C216.297 215.5 -14.0001 273 6 360.5C23.1076 435.345 257.865 420.5 307 420.5C433 420.5 458.78 497 430.5 531.5C384.617 587.474 299.965 583.196 112.617 574.83C53.526 572.191 -18.7129 603.941 158.5 793C308.006 952.5 30.9373 891 69.6657 822.058C95.3109 776.407 494.5 783 1012.5 952" stroke="#004FDA" stroke-width="8" stroke-linecap="round"/>
</svg>
